<?xml version="1.0" encoding="UTF-8"?>
<svg xmlns="http://www.w3.org/2000/svg" viewBox="0 0 69 69">
  <defs>
    <style>
      .cls-1, .cls-2, .cls-3, .cls-4, .cls-5, .cls-6 {
        stroke-miterlimit: 10;
      }

      .cls-1, .cls-3, .cls-5, .cls-6 {
        stroke: #000;
      }

      .cls-2 {
        stroke: #666;
      }

      .cls-2, .cls-3, .cls-4 {
        fill: none;
      }

      .cls-7 {
        stroke-width: 0px;
      }

      .cls-7, .cls-5 {
        fill: #ccc;
      }

      .cls-3, .cls-6 {
        stroke-width: 2px;
      }

      .cls-4 {
        stroke: #f7931e;
      }

      .cls-5 {
        stroke-width: .75px;
      }

      .cls-6 {
        fill: #f7931e;
      }
    </style>
  </defs>
  <g id="base_circle" data-name="base circle">
    <path class="cls-5" d="m34.5,68C15.72,68,.5,52.78.5,34h68c0,18.78-15.22,34-34,34Z"/>
    <path class="cls-1" d="m34.5.5C15.72.5.5,15.72.5,34.5h68C68.5,15.72,53.28.5,34.5.5Z"/>
    <g id="circle">
      <circle class="cls-4" cx="34.5" cy="34.5" r="34"/>
      <circle class="cls-3" cx="34.5" cy="34.5" r="33"/>
    </g>
  </g>
  <g id="bottom_design" data-name="bottom design">
    <g id="Layer_6" data-name="Layer 6">
      <path class="cls-3" d="m34.5,67.5c-12-11-8-21-5-27,1.06-2.12-2-3-2-3,0,0-16.44,1.67-20.72,13.83"/>
      <path class="cls-3" d="m2.5,39.5s8-8,25-3"/>
      <path class="cls-3" d="m27.5,42.5s-14,7-9.6,20.69"/>
      <path class="cls-3" d="m34.2,48.5s-1,15-16.31,14.69"/>
      <path class="cls-3" d="m32.43,46.14s-8.95,15.38-27.09,4.37"/>
      <path class="cls-3" d="m29.79,41.11s-14.99,10.2-28.29-2.21"/>
      <path class="cls-3" d="m34.5,67.5c12-11,8-21,5-27-1.06-2.12,2-3,2-3,0,0,16.44,1.67,20.72,13.83"/>
      <path class="cls-3" d="m66.5,39.5s-8-8-25-3"/>
      <path class="cls-3" d="m41.5,42.5s14,7,9.6,20.69"/>
      <path class="cls-3" d="m34.8,48.5s1,15,16.31,14.69"/>
      <path class="cls-3" d="m36.57,46.14s8.95,15.38,27.09,4.37"/>
      <path class="cls-3" d="m39.21,41.11s14.99,10.2,28.29-2.21"/>
    </g>
    <polygon class="cls-6" points="34.5 49.5 26.6 34.5 42.4 34.5 34.5 49.5"/>
  </g>
  <g id="text">
    <g>
      <path class="cls-7" d="m28.18,16.58c0,1.22-.41,2.09-1.22,2.64-.29.2-.63.33-1.01.39-.22.04-.56.05-1.01.05-.21,0-.48,0-.81-.02-.33-.01-.61-.02-.83-.02h-.49s-.04-.01-.04-.04c0,0,0-.03,0-.06s0-.06,0-.08c0-.03.02-.04.05-.04h.62s.07-.05.07-.14c0-.04,0-.43-.01-1.16,0-.73-.01-1.12-.01-1.19v-1.08c.01-.64.01-.99,0-1.05-.02-.59-.07-.89-.16-.89h-.62s-.05-.01-.05-.04v-.15s.02-.04.06-.04h2.72c.45,0,.81.06,1.07.17.18.08.3.14.39.19.18.11.36.25.54.42.5.5.75,1.22.75,2.16Zm-.61.59c0-.88-.23-1.61-.69-2.18-.32-.4-.68-.68-1.06-.83-.4-.16-.8-.24-1.19-.24-.16,0-.28,0-.34.02s-.1.07-.1.18c0,.04,0,.41,0,1.09s0,1.06,0,1.16v1.78c0,.76.05,1.15.14,1.17.23.04.63.07,1.18.07.62,0,1.09-.16,1.42-.48.43-.41.64-.98.64-1.72Z"/>
      <path class="cls-7" d="m34.38,19.56s0,.04-.03.04h-2.03s-.04-.02-.04-.05v-.12s.01-.06.04-.06h.6s.07-.03.06-.08c-.03-.09-.13-.4-.3-.92-.18-.52-.27-.79-.29-.83-.02-.06-.05-.09-.09-.09h-2.12s-.05.02-.07.05c-.04.08-.11.26-.21.56s-.16.49-.18.6c-.05.23-.07.38-.07.42,0,.19.02.29.07.29h.67s.05.02.05.06v.13s-.01.04-.04.04h-1.78s-.04-.01-.04-.04v-.15s.01-.04.04-.04h.38c.06,0,.15-.14.26-.41.11-.28.44-1.07.98-2.39.35-.83.77-1.83,1.27-3.01.03-.09.06-.14.1-.15.08-.02.19-.06.32-.11.02,0,.04,0,.07.05.03.04.01.08-.04.13-.09.09-.13.18-.13.26,0,.09.02.2.06.33.16.44.44,1.26.86,2.47s.7,1.99.86,2.34c.16.33.27.5.33.5h.41s.04.02.04.06v.13Zm-2.18-2.5c-.12-.35-.25-.73-.39-1.15s-.28-.85-.43-1.3c0-.04-.02-.06-.04-.07-.01.01-.03.04-.04.07-.37.9-.63,1.53-.79,1.91-.16.38-.24.57-.24.58,0,.02.01.03.04.03h1.86s.04-.02.02-.07Z"/>
      <path class="cls-7" d="m40.5,19.56s-.01.05-.04.05h-1.43s-.07-.02-.11-.05c-.11-.1-.32-.34-.62-.74l-.47-.64c-.18-.26-.42-.67-.73-1.23-.02-.05-.04-.07-.07-.07-.14,0-.38-.02-.73-.05-.05-.01-.07,0-.07.04,0,.06,0,.24,0,.56,0,.31,0,.65,0,1,0,.64.07.96.2.96h.78s.04.01.04.04v.15s-.01.04-.04.04h-2.33s-.04,0-.05-.01,0-.02,0-.03v-.14s0-.04.01-.05c0,0,.02,0,.04,0h.58s.07-.05.07-.14v-4.17c0-.81-.06-1.21-.15-1.21h-.56s-.04-.01-.04-.04v-.16s.01-.04.04-.04h1.31s.21,0,.5-.02c.29-.01.46-.02.49-.02.19,0,.38.01.56.04.4.06.73.22.98.45.29.27.43.62.43,1.03,0,.47-.14.86-.42,1.17-.17.19-.46.35-.85.48-.02.01-.03.03-.03.05.13.34.43.77.89,1.3.24.28.42.47.53.59.2.21.36.36.5.46.19.14.42.21.7.21.05,0,.07.01.07.04v.14Zm-2.13-4.2c0-.39-.13-.71-.39-.95-.36-.34-.88-.51-1.57-.51-.1,0-.15.02-.16.06,0,.84,0,1.37-.02,1.57v1s.02.05.06.06c.07.01.25.02.56.02.12,0,.27-.01.42-.04.16-.02.23-.04.21-.04.58-.15.88-.55.88-1.18Z"/>
      <path class="cls-7" d="m46.53,19.56s-.01.05-.04.05h-1.23c-.06,0-.09-.01-.11-.04-.01-.01-.27-.34-.78-.98-.33-.42-.65-.79-.97-1.11-.31-.31-.51-.51-.61-.58-.05-.03-.09-.04-.12-.01l-.31.27s-.03.07-.03.09c0,0,0,.2,0,.56s0,.58,0,.65c0,.61.04.92.11.92h.73s.04.02.04.05v.14s-.01.04-.04.04h-2.12s-.07-.01-.07-.04v-.15s0-.03,0-.03.02-.01.05-.01h.55s.07-.03.07-.09c0-.01,0-.45,0-1.33,0-.87,0-1.33,0-1.38s0-.36,0-.94,0-.88,0-.89c0-.58-.05-.87-.14-.87h-.64s-.05-.01-.05-.04v-.15s.02-.04.05-.04h2.14s.04.01.04.04v.15s-.01.05-.04.05h-.61s-.04.02-.04.07c-.02.09-.03,1.03-.03,2.83,0,.08.01.11.04.1.54-.5,1.1-1.02,1.67-1.54.28-.24.55-.52.82-.84.19-.23.29-.41.29-.53,0-.06-.03-.08-.1-.08h-.55s-.04-.01-.04-.04v-.15s.01-.04.04-.04h1.84s.05.01.05.04v.15s-.01.05-.04.05h-.44c-.08,0-.15.04-.21.11-.56.6-.98,1.02-1.26,1.26-.2.17-.59.54-1.16,1.12-.05.06-.06.1-.04.11.18.14.4.34.65.58.33.32.74.79,1.24,1.42.33.41.52.63.57.65.18.18.32.27.43.27h.34s.04.01.04.04v.13Z"/>
      <path class="cls-7" d="m28.27,30.36s-.01.05-.04.05h-1.43s-.07-.02-.11-.05c-.11-.1-.32-.34-.62-.74l-.47-.64c-.18-.26-.42-.67-.73-1.23-.02-.05-.04-.07-.07-.07-.14,0-.38-.02-.73-.05-.05-.01-.07,0-.07.04,0,.06,0,.24,0,.56s0,.65,0,1c0,.64.07.96.2.96h.78s.04.01.04.04v.15s-.01.04-.04.04h-2.33s-.04,0-.05-.01,0-.02,0-.03v-.14s0-.04.01-.05c0,0,.02,0,.04,0h.58s.07-.05.07-.14v-4.17c0-.81-.06-1.21-.15-1.21h-.56s-.04-.01-.04-.04v-.16s.01-.04.04-.04h1.31s.21,0,.5-.02c.29-.01.46-.02.49-.02.19,0,.38.01.56.04.4.06.73.22.98.45.29.27.43.62.43,1.03,0,.47-.14.86-.42,1.17-.17.19-.46.35-.85.48-.02.01-.03.03-.03.05.13.34.43.77.89,1.3.24.28.42.47.53.59.2.21.36.36.5.46.19.14.42.21.7.21.05,0,.07.01.07.04v.14Zm-2.13-4.2c0-.39-.13-.71-.39-.95-.36-.34-.88-.51-1.56-.51-.1,0-.15.02-.16.06,0,.84,0,1.37-.02,1.57v1s.02.05.06.06c.07.01.25.02.56.02.13,0,.27-.01.42-.04.16-.02.23-.04.21-.04.58-.15.87-.55.87-1.18Z"/>
      <path class="cls-7" d="m34.47,27.29c0,.93-.22,1.65-.67,2.17-.16.18-.28.32-.39.4-.21.17-.49.32-.83.44-.28.1-.63.15-1.07.15-.7,0-1.23-.09-1.58-.27-.26-.13-.47-.29-.65-.5-.22-.25-.37-.52-.47-.81-.11-.35-.17-.82-.17-1.4,0-.4.05-.77.16-1.12.13-.42.32-.77.58-1.06s.62-.52,1.1-.71c.34-.13.71-.2,1.12-.2.63,0,1.11.07,1.44.22.37.17.66.4.87.69.37.51.56,1.17.56,2Zm-.69.24c0-.42-.05-.79-.15-1.11-.11-.37-.28-.68-.52-.95-.22-.25-.47-.43-.77-.56-.35-.14-.69-.22-1.04-.22-.45,0-.77.07-.97.22-.36.26-.61.54-.75.85-.18.41-.27.91-.27,1.5,0,.87.16,1.56.49,2.06.2.3.49.55.88.73.31.14.64.22,1.01.22.41,0,.79-.11,1.13-.34.27-.18.5-.48.69-.91.17-.39.26-.89.26-1.49Z"/>
      <path class="cls-7" d="m40.97,27.29c0,.93-.22,1.65-.67,2.17-.16.18-.29.32-.39.4-.21.17-.49.32-.84.44-.28.1-.63.15-1.07.15-.7,0-1.23-.09-1.58-.27-.26-.13-.47-.29-.65-.5-.22-.25-.37-.52-.47-.81-.11-.35-.17-.82-.17-1.4,0-.4.05-.77.16-1.12.13-.42.32-.77.58-1.06s.62-.52,1.1-.71c.34-.13.71-.2,1.12-.2.63,0,1.11.07,1.44.22.37.17.66.4.88.69.37.51.56,1.17.56,2Zm-.7.24c0-.42-.05-.79-.14-1.11-.11-.37-.28-.68-.52-.95-.22-.25-.47-.43-.77-.56-.35-.14-.69-.22-1.04-.22-.45,0-.77.07-.97.22-.36.26-.61.54-.75.85-.18.41-.27.91-.27,1.5,0,.87.16,1.56.49,2.06.2.3.49.55.88.73.31.14.64.22,1.01.22.41,0,.79-.11,1.13-.34.27-.18.5-.48.69-.91.17-.39.26-.89.26-1.49Z"/>
      <path class="cls-7" d="m46.67,24.49c-.03.18-.07.4-.14.64-.01.04-.03.06-.05.06-.03,0-.06-.02-.08-.07-.07-.13-.19-.22-.35-.25-.29-.06-.81-.1-1.56-.1-.05,0-.07.02-.08.06s-.01.72-.03,2.05c-.02,1.27-.03,1.96-.03,2.04,0,.83.07,1.25.22,1.25h.76s.03.01.03.04v.15s-.01.04-.03.04h-2.42s-.05-.01-.05-.04v-.15s.02-.04.05-.04h.71c.06,0,.08-.04.08-.11-.01-.62-.02-.95-.02-1.01,0-.05,0-.54.02-1.48s.02-1.43.02-1.47c0-.88-.05-1.32-.15-1.32-.76,0-1.29.04-1.6.13-.23.06-.37.14-.44.24-.03.05-.06.08-.09.08-.04,0-.06-.01-.06-.04,0-.03,0-.07.03-.11.08-.3.15-.52.2-.66.01-.04.04-.05.1-.04.06,0,.36.03.91.05.63.03,1.14.04,1.53.04,1.25,0,1.97,0,2.14,0,.08,0,.15,0,.22-.02.07-.01.1-.02.1-.02.04,0,.06.02.06.07Z"/>
    </g>
  </g>
  <g id="top_design" data-name="top design">
    <path class="cls-2" d="m63.79,31c-1.73-14.64-14.18-26-29.29-26S6.95,16.36,5.21,31"/>
    <path class="cls-2" d="m16.21,11.35s-2.44,6.71,2.68,8.68"/>
    <path class="cls-2" d="m5.88,27.35s10.9-1.13,13.01,4.26"/>
    <path class="cls-2" d="m9.38,19.05s1.62,2.05,5.62,4"/>
    <path class="cls-2" d="m52.56,11.35s2.44,6.71-2.68,8.68"/>
    <path class="cls-2" d="m62.89,27.35s-10.9-1.13-13.01,4.26"/>
    <path class="cls-2" d="m59.39,19.05s-1.62,2.05-5.62,4"/>
  </g>
</svg>